<svg width="200" height="50" viewBox="0 0 210 50" xmlns="http://www.w3.org/2000/svg">
    <defs>
        <linearGradient x1="0%" y1="0%" x2="100%" y2="0%" id="a">
            <stop stop-color="#3023AE" offset="0%"/>
            <stop stop-color="#C86DD7" offset="100%"/>
        </linearGradient>
    </defs>
    <path stroke="url(#a)"
          stroke-width="3"
          stroke-linejoin="round"
          stroke-linecap="round"
          d="M5 40 C 5.89 38.79, 8.51 33.38, 10 33.18 S 13.68 37.92, 15 38.64 S 18.5 38.64, 20 38.64 S 23.5 38.64, 25 38.64 S 28.5 38.64, 30 38.64 S 33.5 38.64, 35 38.64 S 38.5 38.64, 40 38.64 S 43.5 38.64, 45 38.64 S 48.5 38.64, 50 38.64 S 53.5 38.64, 55 38.64 S 58.5 38.64, 60 38.64 S 63.55 39.04, 65 38.64 S 68.68 36.63, 70 35.91 S 73.5 33.18, 75 33.18 S 78.5 35.91, 80 35.91 S 83.51 32.98, 85 33.18 S 88.68 36.55, 90 37.27 S 93.51 38.44, 95 38.64 S 98.61 39.21, 100 38.64 S 103.61 35.12, 105 34.55 S 108.51 34.35, 110 34.55 S 113.68 36.63, 115 35.91 S 118.99 30.2, 120 29.09 S 123.51 25.2, 125 25 S 128.76 26.88, 130 27.73 S 133.51 32.02, 135 31.82 S 138.61 26.93, 140 26.36 S 143.84 28.68, 145 27.73 S 148.5 18.18, 150 18.18 S 153.68 27.01, 155 27.73 S 158.68 22.92, 160 23.64 S 163.61 33.75, 165 33.18 S 169.41 20.93, 170 19.55 S 173.84 10.95, 175 10 S 179.22 10.08, 180 11.36 S 184.11 25.15, 185 26.36 S 189.05 26.16, 190 25 S 193.51 14.29, 195 14.09 S 198.76 22.79, 200 23.64 S 203.68 21.63, 205 20.91"
          fill="none"/>
    <circle r="4" cx="5" cy="40" fill="#3023AE"/>
    <circle r="4" cx="205" cy="20.91" fill="#C86DD7"/>      
</svg>